<svg width="300" height="300" viewBox="20 130 250 1" fill="none" xmlns="http://www.w3.org/2000/svg">
<g filter="">
<path d="M191.254 50.5275L121.57 91.0074L121.355 10.4194L191.254 50.5275Z" fill="#97D902"/>
<path d="M121.57 91.0372L51.8863 131.517L51.6717 50.9292L121.57 91.0372Z" fill="#A5ED00"/>
<path d="M51.6715 50.8993L121.355 10.4194L121.57 91.0074L51.6715 50.8993Z" fill="#97D902"/>
<path d="M51.8612 131.504L51.7863 131.547L51.8614 131.59L121.76 171.698L121.835 171.742L121.835 171.655L121.62 91.067L121.62 90.9804L121.545 91.0239L51.8612 131.504Z" fill="#A5ED00" stroke="#A5ED00" stroke-width="0.1"/>
<path d="M121.437 171.166L51.3147 210.883L51.9802 130.297L121.437 171.166Z" fill="#3C88CA"/>
<path d="M191 212L120.77 251.781L121.436 171.196L191 212Z" fill="#3E8DD1"/>
<path d="M121.412 171.123L121.336 171.166L121.411 171.209L190.975 212.043L191.049 212.087L191.05 212L191.608 131.45L191.609 131.364L191.534 131.406L121.412 171.123Z" fill="#3E8DD1" stroke="#3E8DD1" stroke-width="0.1"/>
<path d="M51.2898 210.869L51.2144 210.912L51.2891 210.956L120.745 251.825L120.82 251.869L120.821 251.782L121.486 171.196L121.487 171.11L121.412 171.153L51.2898 210.869Z" fill="#3C88CA" stroke="#3C88CA" stroke-width="0.1"/>
<g filter="">
<path d="M260.616 90.8082L190.955 131.326L190.696 50.7385L260.616 90.8082Z" fill="#333333"/>
<path d="M260.641 90.8514L260.716 90.8079L260.641 90.7648L190.721 50.6951L190.645 50.6521L190.646 50.7387L190.905 131.327L190.905 131.413L190.98 131.37L260.641 90.8514Z" stroke="#333333" stroke-width="0.1"/>
</g>
<path d="M260.876 171.456L191 212L190.955 131.386L260.876 171.456Z" fill="#404040"/>
<path d="M190.93 131.313L190.855 131.357L190.93 131.4L260.851 171.469L260.926 171.512L260.926 171.426L260.667 90.838L260.666 90.7514L260.591 90.795L190.93 131.313Z" fill="#404040" stroke="#404040" stroke-width="0.1"/>
<path d="M121.034 91.2568L190.696 50.7386L190.955 131.326L121.034 91.2568Z" fill="#333333"/>
</g>

</svg>
