<svg width="373" height="356" viewBox="0 0 373 356" fill="none" xmlns="http://www.w3.org/2000/svg">
	<g filter="url(#filter0_d)">
		<path d="M152.248 29.7491L83.9242 69.1959L152.425 108.183L220.708 69.2405L152.248 29.7491Z" fill="#97D902" />
		<path d="M84.162 147.678L152.486 187.125L152.425 108.183L84.162 68.7842L84.162 147.678Z" fill="#A5ED00" />
		<path d="M84.162 147.678L152.486 187.125L152.425 108.183L84.162 68.7842L84.162 147.678Z" fill="#A5ED00" />
		<path d="M220.709 69.2403L152.425 108.183L220.749 148.119L289.073 108.672L220.709 69.2403Z" fill="#333333" />
		<path d="M220.709 69.2403L152.425 108.183L220.749 148.119L289.073 108.672L220.709 69.2403Z" fill="#333333" />
		<path d="M288.835 187.154L288.835 108.26L220.175 147.659L220.175 226.612L288.835 187.154Z" fill="#404040" />
		<path d="M84.1416 226.553L152.465 266V187.106L84.1416 147.659V226.553Z" fill="#3C88CA" />
		<path d="M220.314 226.553V147.659L151.99 187.106V266L220.314 226.553Z" fill="#3E8DD1" />
		<path d="M220.314 226.553V147.659L151.99 187.106V266L220.314 226.553Z" fill="#3E8DD1" />
	</g>
	<defs>
		<filter id="filter0_d" x="0" y="0" width="372.997" height="356" filterUnits="userSpaceOnUse" color-interpolation-filters="sRGB">
			<feFlood flood-opacity="0" result="BackgroundImageFix" />
			<feColorMatrix in="SourceAlpha" type="matrix" values="0 0 0 0 0 0 0 0 0 0 0 0 0 0 0 0 0 0 127 0" />
			<feOffset dy="40" />
			<feGaussianBlur stdDeviation="25" />
			<feColorMatrix type="matrix" values="0 0 0 0 0.491667 0 0 0 0 0.491667 0 0 0 0 0.491667 0 0 0 0.27 0" />
			<feBlend mode="normal" in2="BackgroundImageFix" result="effect1_dropShadow" />
			<feBlend mode="normal" in="SourceGraphic" in2="effect1_dropShadow" result="shape" />
		</filter>
	</defs>
</svg>
